<svg xmlns="http://www.w3.org/2000/svg" version="1.1" xmlns:xlink="http://www.w3.org/1999/xlink" xmlns:svgjs="http://svgjs.com/svgjs" width="512" height="512" x="0" y="0" viewBox="0 0 512 512" style="enable-background:new 0 0 512 512" xml:space="preserve" class=""><g><path d="M308.712 237.174h-97.894M105.394 237.174H7.5M210.818 230.648c0-8.876-7.189-16.065-16.065-16.065h-14.057v-14.057c0-8.876-7.189-16.065-16.065-16.065H151.58c-8.876 0-16.065 7.189-16.065 16.065v14.057h-14.057c-8.876 0-16.065 7.189-16.065 16.065v13.053c0 8.876 7.189 16.065 16.065 16.065h14.057v14.057c0 8.876 7.189 16.065 16.065 16.065h13.053c8.876 0 16.065-7.189 16.065-16.065v-14.057h14.057c8.876 0 16.065-7.189 16.065-16.065-.002-4.566-.002-8.488-.002-13.053zM238.429 414.136h-80.323M353.894 414.136h-80.323M504.5 361.424v12.551c0 22.179-17.982 40.162-40.162 40.162h-20.081M331.303 135.515h26.567c24.569 0 46.648 14.92 55.835 37.652.247.562 3.842 9.846 38.083 97.894l26.848 3.835c14.84 2.119 25.864 14.83 25.864 29.82v26.587M286.121 135.515h-159.14M67.742 414.136h-20.08c-22.179 0-40.162-17.982-40.162-40.162V185.716c0-27.722 22.48-50.202 50.202-50.202h34.137" style="stroke-width:15;stroke-linecap:round;stroke-linejoin:round;stroke-miterlimit:10;" fill="none" stroke="#f36800" stroke-width="15" stroke-linecap="round" stroke-linejoin="round" stroke-miterlimit="10" data-original="#000000" class=""></path><path d="M413.705 173.167h-47.26c-11.095 0-20.081 8.986-20.081 20.081v57.732c0 11.095 8.986 20.081 20.081 20.081h85.343M308.712 135.515v278.621M7.5 338.833h301.212" style="stroke-width:15;stroke-linecap:round;stroke-linejoin:round;stroke-miterlimit:10;" fill="none" stroke="#f36800" stroke-width="15" stroke-linecap="round" stroke-linejoin="round" stroke-miterlimit="10" data-original="#000000" class=""></path><circle cx="112.924" cy="414.136" r="45.182" style="stroke-width:15;stroke-linecap:round;stroke-linejoin:round;stroke-miterlimit:10;" fill="none" stroke="#f36800" stroke-width="15" stroke-linecap="round" stroke-linejoin="round" stroke-miterlimit="10" data-original="#000000" class=""></circle><circle cx="399.076" cy="414.136" r="45.182" style="stroke-width:15;stroke-linecap:round;stroke-linejoin:round;stroke-miterlimit:10;" fill="none" stroke="#f36800" stroke-width="15" stroke-linecap="round" stroke-linejoin="round" stroke-miterlimit="10" data-original="#000000" class=""></circle><path d="M346.364 308.712h15.06" style="stroke-width:15;stroke-linecap:round;stroke-linejoin:round;stroke-miterlimit:10;" fill="none" stroke="#f36800" stroke-width="15" stroke-linecap="round" stroke-linejoin="round" stroke-miterlimit="10" data-original="#000000" class=""></path><circle cx="112.924" cy="414.136" r="15.061" style="stroke-width:15;stroke-linecap:round;stroke-linejoin:round;stroke-miterlimit:10;" fill="none" stroke="#f36800" stroke-width="15" stroke-linecap="round" stroke-linejoin="round" stroke-miterlimit="10" data-original="#000000" class=""></circle><circle cx="399.076" cy="414.136" r="15.061" style="stroke-width:15;stroke-linecap:round;stroke-linejoin:round;stroke-miterlimit:10;" fill="none" stroke="#f36800" stroke-width="15" stroke-linecap="round" stroke-linejoin="round" stroke-miterlimit="10" data-original="#000000" class=""></circle><path d="M331.303 135.515h-45.182v-15.061c0-12.48 10.111-22.591 22.591-22.591 12.465 0 22.591 10.101 22.591 22.591v15.061zM308.712 67.742v-15.06M271.442 83.185l-10.653-10.653M345.982 83.185l10.653-10.653M504.5 361.424h-22.591c-8.313 0-15.061-6.747-15.061-15.061 0-8.3 6.747-15.061 15.061-15.061H504.5v30.122z" style="stroke-width:15;stroke-linecap:round;stroke-linejoin:round;stroke-miterlimit:10;" fill="none" stroke="#f36800" stroke-width="15" stroke-linecap="round" stroke-linejoin="round" stroke-miterlimit="10" data-original="#000000" class=""></path></g></svg>