<svg xmlns="http://www.w3.org/2000/svg" version="1.1" xmlns:xlink="http://www.w3.org/1999/xlink" xmlns:svgjs="http://svgjs.com/svgjs" width="512" height="512" x="0" y="0" viewBox="0 0 682.667 682.667" style="enable-background:new 0 0 512 512" xml:space="preserve"><g><defs><clipPath id="a" clipPathUnits="userSpaceOnUse"><path d="M0 512h512V0H0Z" fill="#f36800" data-original="#000000"></path></clipPath></defs><g clip-path="url(#a)" transform="matrix(1.33333 0 0 -1.33333 0 682.667)"><path d="M0 0h-231.506v46.602h497V0H33.959" style="stroke-width:14.995;stroke-linecap:round;stroke-linejoin:round;stroke-miterlimit:10;stroke-dasharray:none;stroke-opacity:1" transform="translate(239.006 299.469)" fill="none" stroke="#f36800" stroke-width="14.995" stroke-linecap="round" stroke-linejoin="round" stroke-miterlimit="10" stroke-dasharray="none" stroke-opacity="" data-original="#000000"></path><path d="M0 0h165.939c11.622 0 21.147 9.525 21.147 21.146 0 11.624-9.525 21.12-21.147 21.12H0c-11.623 0-21.146-9.496-21.146-21.12C-21.146 9.525-11.623 0 0 0Z" style="stroke-width:14.995;stroke-linecap:round;stroke-linejoin:round;stroke-miterlimit:10;stroke-dasharray:none;stroke-opacity:1" transform="translate(51.184 346.07)" fill="none" stroke="#f36800" stroke-width="14.995" stroke-linecap="round" stroke-linejoin="round" stroke-miterlimit="10" stroke-dasharray="none" stroke-opacity="" data-original="#000000"></path><path d="M0 0h165.969c11.621 0 21.117 9.525 21.117 21.146 0 11.624-9.496 21.12-21.117 21.12H0c-11.623 0-21.119-9.496-21.119-21.12C-21.119 9.525-11.623 0 0 0Z" style="stroke-width:14.995;stroke-linecap:round;stroke-linejoin:round;stroke-miterlimit:10;stroke-dasharray:none;stroke-opacity:1" transform="translate(294.85 346.07)" fill="none" stroke="#f36800" stroke-width="14.995" stroke-linecap="round" stroke-linejoin="round" stroke-miterlimit="10" stroke-dasharray="none" stroke-opacity="" data-original="#000000"></path><path d="M0 0h-45.439c0 45.496 27.835 83.508 65.054 92.92m92.041-50.147C117.324 29.904 120.5 15.393 120.5 0H75.061M55.445 92.92c14.172-3.572 26.987-11.311 37.416-22.025" style="stroke-width:14.995;stroke-linecap:round;stroke-linejoin:round;stroke-miterlimit:10;stroke-dasharray:none;stroke-opacity:1" transform="translate(96.623 388.336)" fill="none" stroke="#f36800" stroke-width="14.995" stroke-linecap="round" stroke-linejoin="round" stroke-miterlimit="10" stroke-dasharray="none" stroke-opacity="" data-original="#000000"></path><path d="M0 0h-45.467c0 45.496 27.863 83.508 65.082 92.92m92.041-50.147c5.643-12.869 8.846-27.38 8.846-42.773H75.033M55.445 92.92c14.147-3.572 26.959-11.311 37.389-22.025" style="stroke-width:14.995;stroke-linecap:round;stroke-linejoin:round;stroke-miterlimit:10;stroke-dasharray:none;stroke-opacity:1" transform="translate(340.316 388.336)" fill="none" stroke="#f36800" stroke-width="14.995" stroke-linecap="round" stroke-linejoin="round" stroke-miterlimit="10" stroke-dasharray="none" stroke-opacity="" data-original="#000000"></path><path d="M0 0c20.723 0 37.531-47.311 37.531-105.703h-75.06C-37.529-47.311-20.721 0 0 0Z" style="stroke-width:14.995;stroke-linecap:round;stroke-linejoin:round;stroke-miterlimit:10;stroke-dasharray:none;stroke-opacity:1" transform="translate(134.152 494.04)" fill="none" stroke="#f36800" stroke-width="14.995" stroke-linecap="round" stroke-linejoin="round" stroke-miterlimit="10" stroke-dasharray="none" stroke-opacity="" data-original="#000000"></path><path d="M0 0c20.721 0 37.502-47.311 37.502-105.703h-75.033C-37.531-47.311-20.721 0 0 0Z" style="stroke-width:14.995;stroke-linecap:round;stroke-linejoin:round;stroke-miterlimit:10;stroke-dasharray:none;stroke-opacity:1" transform="translate(377.848 494.04)" fill="none" stroke="#f36800" stroke-width="14.995" stroke-linecap="round" stroke-linejoin="round" stroke-miterlimit="10" stroke-dasharray="none" stroke-opacity="" data-original="#000000"></path><path d="M0 0c-.199 4.791 3.939 8.732 8.73 8.732h17.491c4.789 0 8.474-3.941 8.73-8.732 3.174-61.086 28.147-44.389 28.147-63.098v-169.881c0-5.33-4.366-9.722-9.694-9.722h-65.537c-5.33 0-9.695 4.392-9.695 9.722v150.463C-21.828-65.225 2.154-49.689 0 0Zm155.309 0c.228 4.791-3.911 8.732-8.731 8.732h-17.461c-4.818 0-8.504-3.941-8.73-8.732-3.203-61.086-28.176-44.389-28.176-63.098v-169.881c0-5.33 4.393-9.722 9.723-9.722h65.507c5.358 0 9.723 4.392 9.723 9.722v150.463c0 17.291-24.01 32.827-21.855 82.516z" style="stroke-width:14.995;stroke-linecap:round;stroke-linejoin:round;stroke-miterlimit:10;stroke-dasharray:none;stroke-opacity:1" transform="translate(56.484 260.662)" fill="none" stroke="#f36800" stroke-width="14.995" stroke-linecap="round" stroke-linejoin="round" stroke-miterlimit="10" stroke-dasharray="none" stroke-opacity="" data-original="#000000"></path><path d="M0 0h-76.705m23.697-195.109h29.113" style="stroke-width:14.995;stroke-linecap:round;stroke-linejoin:round;stroke-miterlimit:10;stroke-dasharray:none;stroke-opacity:1" transform="translate(172.59 236.88)" fill="none" stroke="#f36800" stroke-width="14.995" stroke-linecap="round" stroke-linejoin="round" stroke-miterlimit="10" stroke-dasharray="none" stroke-opacity="" data-original="#000000"></path><path d="M148.695 137.867h84.953V97.076h-84.953zm-114.039 0h84.926V97.076H34.656Z" style="stroke-width:14.995;stroke-linecap:round;stroke-linejoin:round;stroke-miterlimit:10;stroke-dasharray:none;stroke-opacity:1" fill="none" stroke="#f36800" stroke-width="14.995" stroke-linecap="round" stroke-linejoin="round" stroke-miterlimit="10" stroke-dasharray="none" stroke-opacity="" data-original="#000000"></path><path d="M0 0c-.197 4.791 3.941 8.732 8.73 8.732h17.491c4.791 0 8.476-3.941 8.73-8.732C38.127-61.086 63.1-44.389 63.1-63.098v-169.881c0-5.33-4.366-9.722-9.696-9.722h-65.537c-5.328 0-9.693 4.392-9.693 9.722v150.463C-21.826-65.225 2.154-49.689 0 0Zm155.311 0c.226 4.791-3.94 8.732-8.731 8.732h-17.461c-4.82 0-8.504-3.941-8.76-8.732-3.173-61.086-28.148-44.389-28.148-63.098v-169.881c0-5.33 4.365-9.722 9.723-9.722h65.509c5.358 0 9.723 4.392 9.723 9.722v150.463c0 17.291-24.01 32.827-21.855 82.516z" style="stroke-width:14.995;stroke-linecap:round;stroke-linejoin:round;stroke-miterlimit:10;stroke-dasharray:none;stroke-opacity:1" transform="translate(300.178 260.662)" fill="none" stroke="#f36800" stroke-width="14.995" stroke-linecap="round" stroke-linejoin="round" stroke-miterlimit="10" stroke-dasharray="none" stroke-opacity="" data-original="#000000"></path><path d="M0 0h-79.426m25.143-195.109h29.111" style="stroke-width:14.995;stroke-linecap:round;stroke-linejoin:round;stroke-miterlimit:10;stroke-dasharray:none;stroke-opacity:1" transform="translate(417.56 236.88)" fill="none" stroke="#f36800" stroke-width="14.995" stroke-linecap="round" stroke-linejoin="round" stroke-miterlimit="10" stroke-dasharray="none" stroke-opacity="" data-original="#000000"></path><path d="M392.389 137.867h84.955V97.076h-84.955zm-114.037 0h84.926V97.076h-84.926z" style="stroke-width:14.995;stroke-linecap:round;stroke-linejoin:round;stroke-miterlimit:10;stroke-dasharray:none;stroke-opacity:1" fill="none" stroke="#f36800" stroke-width="14.995" stroke-linecap="round" stroke-linejoin="round" stroke-miterlimit="10" stroke-dasharray="none" stroke-opacity="" data-original="#000000"></path></g></g></svg>