<svg xmlns="http://www.w3.org/2000/svg" version="1.1" xmlns:xlink="http://www.w3.org/1999/xlink" xmlns:svgjs="http://svgjs.com/svgjs" width="512" height="512" x="0" y="0" viewBox="0 0 64 64" style="enable-background:new 0 0 512 512" xml:space="preserve" class=""><g><path d="M48.668 41.136 41 39.219v-1.423c1.564-.386 5.009-1.391 6.707-3.089C50.177 32.238 51 22.417 51 20c0-1.124-.009-3.131-2.607-5.215C46.877 8.42 42.764 4.03 37 2.592V2c0-1.103-.897-2-2-2h-6c-1.103 0-2 .897-2 2v.592C21.236 4.03 17.123 8.42 15.607 14.785 13.009 16.869 13 18.876 13 20c0 2.417.823 12.238 3.293 14.707 1.698 1.698 5.143 2.703 6.707 3.089v1.423l-7.668 1.917A10.985 10.985 0 0 0 7 51.808V63a1 1 0 0 0 2 0v-1h8v1a1 1 0 0 0 2 0v-3h10v3a1 1 0 0 0 2 0V43.941c.332.035.665.059 1 .059s.668-.024 1-.059V63a1 1 0 0 0 2 0v-3h10v3a1 1 0 0 0 2 0v-1h8v1a1 1 0 0 0 2 0V51.808c0-5.057-3.426-9.445-8.332-10.672zM25 39.477v-3.543a15.589 15.589 0 0 0 2 1.413v3.282a18.766 18.766 0 0 1-2-1.152zM22 26v-3.615c.62-.704 2.076-2.585 2.7-5.123A93.196 93.196 0 0 1 32 17c2.829 0 5.234.099 7.29.261.617 2.517 2.078 4.407 2.71 5.128V26c0 5.616-5.589 11-10 11-3.423 0-10-4.645-10-11zm-3-3c0-.466.108-.63.128-.641.07-.037.384-.024.872.218v2.921c-.626-.651-1-1.79-1-2.498zm-1.445-7.168C20.294 14.006 25.424 13 32 13s11.706 1.006 14.445 2.832c.421.281.767.553 1.061.819C44.397 15.555 39.224 15 32 15s-12.397.555-15.506 1.651a8.922 8.922 0 0 1 1.061-.819zM44 22.577c.488-.242.802-.255.872-.218.02.011.128.175.128.641 0 .708-.374 1.847-1 2.498zM44 18v2.447a4.056 4.056 0 0 0-.386.12.974.974 0 0 0-.433.114c-.516-.653-1.286-1.794-1.76-3.22.958.11 1.812.237 2.573.374.001.055.006.11.006.165zm-21.423-.539c-.486 1.453-1.282 2.618-1.796 3.265a4.333 4.333 0 0 0-.781-.28V18c0-.055.005-.11.006-.165a41.594 41.594 0 0 1 2.571-.374zm23.716 15.832c-1.135 1.135-3.621 1.988-5.293 2.438v-1.804c1.392-1.705 2.437-3.757 2.823-6.038C46.028 27.316 47 24.512 47 23c0-1.299-.508-1.957-1-2.291v-2.432c2.088.562 3 1.209 3 1.723 0 3.624-1.143 11.729-2.707 13.293zm-.443-20.051c-2.24-1.013-5.254-1.704-8.85-2.028V4.661c4.148 1.2 7.263 4.232 8.85 8.581zM35 2v9.077a59.2 59.2 0 0 0-6 0V2zm-8 2.661v6.553c-3.597.325-6.611 1.016-8.85 2.028 1.587-4.349 4.702-7.381 8.85-8.581zm-9.293 28.632C16.143 31.729 15 23.624 15 20c0-.514.912-1.161 3-1.723v2.432c-.492.334-1 .992-1 2.291 0 1.51.97 4.31 3.17 4.888.382 2.343 1.44 4.382 2.83 6.053v1.79c-1.672-.45-4.158-1.303-5.293-2.438zM9 60v-2h8v2zm10-2v-2h10v2zm10-4H19v-1a1 1 0 0 0-2 0v3H9v-4.192a8.986 8.986 0 0 1 6.817-8.731l7.982-1.996a19.737 19.737 0 0 0 3.804 2.001l.021.008c.44.17.899.327 1.376.461zm0-12.542v-3.125c1.093.43 2.132.667 3 .667 2.116 0 4.742-1.128 7-3.033v3.51C37.937 40.184 34.922 42 32 42c-1.018 0-2.045-.224-3-.542zm11.201-.377 7.982 1.996A8.985 8.985 0 0 1 55 51.808V56h-8v-3a1 1 0 0 0-2 0v1H35V43.551c2.382-.671 4.381-1.913 5.201-2.47zM35 58v-2h10v2zm12 2v-2h8v2z" fill="#f36800" data-original="#000000"></path><circle cx="32" cy="5" r="1" fill="#f36800" data-original="#000000"></circle></g></svg>