<svg xmlns="http://www.w3.org/2000/svg" version="1.1" xmlns:xlink="http://www.w3.org/1999/xlink" xmlns:svgjs="http://svgjs.com/svgjs" width="512" height="512" x="0" y="0" viewBox="0 0 64 64" style="enable-background:new 0 0 512 512" xml:space="preserve" class=""><g><path d="m43.293 16.293-1 1a1 1 0 1 0 1.414 1.414l1-1a1 1 0 0 0-1.414-1.414zM55.293 12.293l-1 1a1 1 0 1 0 1.414 1.414l1-1a1 1 0 0 0-1.414-1.414zM44.293 25.707a1 1 0 0 0 1.414 0l1-1a1 1 0 0 0-1.414-1.414l-1 1a1 1 0 0 0 0 1.414zM23 49h5a1 1 0 0 0 0-2h-4.246l-2.286-8h4.687l.879 3.261A1 1 0 0 0 28 43h7v4h-3a1 1 0 0 0 0 2h10a1 1 0 0 0 .8-.4l2.7-3.6H51a1 1 0 0 0 1-1v-3a1 1 0 0 0-1-1H38.977a.967.967 0 0 0-.294.047L35.839 41h-7.073l-3.228-11.97a3.993 3.993 0 0 0-3.88-3.03H18v-1a5.006 5.006 0 0 0 5-5v-6h4a1 1 0 0 0 1-1v-3a1 1 0 0 0-1-1h-3.048A9.713 9.713 0 0 0 14.5 0a9.713 9.713 0 0 0-9.452 9H2a1 1 0 0 0-1 1v3a1 1 0 0 0 1 1h3.077a14.437 14.437 0 0 1-.584 4.729 1 1 0 1 0 1.925.543A16.528 16.528 0 0 0 7.081 14h6.714l-2.61 13.922-8.405-.765a34.747 34.747 0 0 0 2.059-3.729 1 1 0 0 0-1.809-.855A31.24 31.24 0 0 1 .2 27.4 1 1 0 0 0 .91 29l.722.066A4.472 4.472 0 0 0 0 32.5v15a4.5 4.5 0 0 0 9 0V42h11.246l.286 1H16a5.006 5.006 0 0 0-5 5v9a1 1 0 0 1-1 1H1a1 1 0 0 0 0 2h9a3 3 0 0 0 3-3v-9a3 3 0 0 1 3-3h5.1l.571 2H18a3 3 0 0 0-3 3v7a5.006 5.006 0 0 1-5 5H1a1 1 0 0 0 0 2h9a7.008 7.008 0 0 0 7-7v-7a1 1 0 0 1 1-1h2.125l1.884 14.132A1 1 0 0 0 23 64a1.032 1.032 0 0 0 .134-.009 1 1 0 0 0 .859-1.123L22.142 49zm27-6H40v-1h10zm-11 2h4l-1.5 2H37v-4.279l1-.333V44a1 1 0 0 0 1 1zm-18.1-8-.286-1h4.735l.27 1zm.761-9a2 2 0 0 1 1.939 1.533L24.807 34H20.04l-1.714-6zM14.5 2a7.693 7.693 0 0 1 7.435 7H7.065A7.693 7.693 0 0 1 14.5 2zM3 11h23v1H3zm18 3v6a3 3 0 0 1-3 3h-1a1 1 0 0 0-1 1v2h-2.42l1.5-8H19a1 1 0 0 0 0-2h-3.545l.375-2zM2 38h5v2H2zm0-2v-3.5a2.5 2.5 0 0 1 5 0V36zm2.5 14A2.5 2.5 0 0 1 2 47.5V42h5v5.5A2.5 2.5 0 0 1 4.5 50zM9 40v-5h9.246l1.429 5zm0-7v-.5a4.457 4.457 0 0 0-1.059-2.865L11.91 30h.091a1 1 0 0 0 .982-.815L13.205 28h3.041l1.429 5zM63.819 31.427a1 1 0 0 0-1.393-.246l-10 7a1 1 0 1 0 1.146 1.639l10-7a1 1 0 0 0 .247-1.393zM63.447 50.105l-10-5a1 1 0 0 0-.895 1.789l10 5a1 1 0 0 0 .895-1.789zM60 42a1 1 0 0 0-1-1h-2a1 1 0 0 0 0 2h2a1 1 0 0 0 1-1zM61.895 37.553a1 1 0 0 0-1.342-.447l-2 1a1 1 0 0 0 .895 1.789l2-1a1 1 0 0 0 .447-1.342zM57.684 45.948l3 1a1 1 0 1 0 .633-1.9l-3-1a1 1 0 1 0-.633 1.9z" fill="#f36800" data-original="#000000" class=""></path><path d="M52.986 49.164a1 1 0 1 0-1.973-.328 9.488 9.488 0 0 1-5.3 6.77A7.265 7.265 0 0 0 39 50a1 1 0 0 0-.99 1.142c.885 6.2-8.365 10.917-8.458 10.964a1 1 0 0 0 .9 1.789c.409-.205 9.462-4.814 9.622-11.712 1.3.374 3.366 1.514 3.944 4.981a1 1 0 0 0 1.3.784c.266-.089 6.582-2.264 7.668-8.784zM62.553 16.105c-2.671 1.336-4.484 4.9-5.509 7.544a14.222 14.222 0 0 0-4.529-4.507A1 1 0 0 0 51 19.9a18.863 18.863 0 0 1-1.94 6.649 1 1 0 0 0 .443 1.343.988.988 0 0 0 .449.107 1 1 0 0 0 .894-.55 20.9 20.9 0 0 0 1.908-5.672C54.094 22.861 56 24.794 56 27a1 1 0 0 0 1.97.242c.525-2.1 2.533-7.876 5.477-9.348a1 1 0 1 0-.895-1.789zM42.293 35.707a1 1 0 0 0 1.237.141 21.109 21.109 0 0 0 4.576-4.211 1 1 0 1 0-1.543-1.273 21.1 21.1 0 0 1-3.324 3.236c-.749-1.61-.456-4.408-.258-5.4a1 1 0 0 0-1.332-1.132C33.1 30.271 33 37.686 33 38a1 1 0 0 0 1 1 1 1 0 0 0 1-1 10.049 10.049 0 0 1 5.783-8.374c-.132 1.832-.02 4.551 1.51 6.081zM28.2 53.512a6.85 6.85 0 0 0 6.117 1.437A1 1 0 0 0 35 54v-3a1 1 0 0 0-2 0v2.159a5.577 5.577 0 0 1-4.293-1.866 1 1 0 0 0-1.488.082c-1.577 1.972-3.591 6.668.074 10.332a1 1 0 0 0 1.414-1.414c-2.435-2.436-1.32-5.346-.507-6.781zM60.231 53.032a1 1 0 0 0-1.2.735c-.055.221-1.454 5.413-11.212 7.25A1 1 0 0 0 48 63a1.012 1.012 0 0 0 .186-.018c11.14-2.1 12.728-8.488 12.79-8.759a1 1 0 0 0-.745-1.191zM54.168 30.445a19.555 19.555 0 0 1-4.724 4.723 1 1 0 0 0 1.11 1.664 21.281 21.281 0 0 0 5.277-5.277 1 1 0 1 0-1.664-1.109zM13 5h-1a1 1 0 0 0 0 2h1a1 1 0 0 0 0-2zM17 5h-1a1 1 0 0 0 0 2h1a1 1 0 0 0 0-2z" fill="#f36800" data-original="#000000" class=""></path></g></svg>