<svg xmlns="http://www.w3.org/2000/svg" version="1.1" xmlns:xlink="http://www.w3.org/1999/xlink" xmlns:svgjs="http://svgjs.com/svgjs" width="512" height="512" x="0" y="0" viewBox="0 0 64 64" style="enable-background:new 0 0 512 512" xml:space="preserve" class=""><g><path d="M51 57a1 1 0 0 0-1 1v1a1 1 0 0 0 2 0v-1a1 1 0 0 0-1-1ZM58 44v1a1 1 0 0 0 2 0v-1a1 1 0 0 0-2 0ZM55 38a1 1 0 0 0 1-1v-1a1 1 0 0 0-2 0v1a1 1 0 0 0 1 1ZM59 15v1a1 1 0 0 0 2 0v-1a1 1 0 0 0-2 0ZM1 8h2v7a1 1 0 0 0 2 0V8h2v4a1 1 0 0 0 2 0V8h4v3a3 3 0 0 1-3 3H8a1 1 0 0 0 0 2h2a5.006 5.006 0 0 0 5-5V8h2a1 1 0 0 0 0-2h-2.068C14.513 2.614 12.017 0 9 0S3.487 2.614 3.068 6H1a1 1 0 0 0 0 2Zm8-6c1.932 0 3.547 1.721 3.919 4H5.081C5.453 3.721 7.068 2 9 2ZM14 42.787V35a1 1 0 0 0-2 0v7H7V32a2 2 0 0 1 2-2h1a4 4 0 0 0 4 4h10a1 1 0 0 0 1-1v-3h1v6a1 1 0 0 0 2 0v-6h8a4 4 0 0 0 4 4h10a1 1 0 0 0 1-1v-3h4a1 1 0 0 0 0-2h-4a1 1 0 0 0-1-1h-6v-6a4 4 0 0 0-4-4H29a3 3 0 0 0-3 3v8h-1a1 1 0 0 0-1-1h-6v-6a4 4 0 0 0-4-4H3a3 3 0 0 0-3 3v39.125a1 1 0 0 0 2 0V44h3v16a2 2 0 0 1-2 2H1a1 1 0 0 0 0 2h2a4 4 0 0 0 4-4V44h5.35L16 52.212V63a1 1 0 0 0 2 0V52a1 1 0 0 0-.086-.406ZM49 29v3h-9a2 2 0 0 1-2-2v-3h4v1a1 1 0 0 0 1 1Zm-7-4h-4v-1h4Zm-14-5a1 1 0 0 1 1-1h11a2 2 0 0 1 2 2v1h-5a1 1 0 0 0-1 1v5h-8Zm-5 9v3h-9a2 2 0 0 1-2-2v-3h4v1a1 1 0 0 0 1 1Zm-7-4h-4v-1h4ZM2 42V20a1 1 0 0 1 1-1h11a2 2 0 0 1 2 2v1h-5a1 1 0 0 0-1 1v5H9a4 4 0 0 0-4 4v10ZM36 14h-2a1 1 0 0 0 0 2h2a5.006 5.006 0 0 0 5-5V8h2a1 1 0 0 0 0-2h-2.068C40.513 2.614 38.017 0 35 0s-5.513 2.614-5.932 6H27a1 1 0 0 0 0 2h2v7a1 1 0 0 0 2 0V8h2v4a1 1 0 0 0 2 0V8h4v3a3 3 0 0 1-3 3ZM35 2c1.932 0 3.547 1.721 3.919 4h-7.838c.372-2.279 1.987-4 3.919-4ZM56 27a.991.991 0 0 0 .5-.132l7-4a1 1 0 0 0-.992-1.736l-7 4A1 1 0 0 0 56 27ZM63.394 34.081l-7-3a1 1 0 1 0-.787 1.838l7 3A.983.983 0 0 0 63 36a1 1 0 0 0 .394-1.919Z" fill="#f36800" data-original="#000000" class=""></path><path d="M33.832 47.445a1 1 0 0 0-1.664 1.109L36 54.3V63a1 1 0 0 0 2 0v-9a1 1 0 0 0-.168-.555ZM8.832 47.445a1 1 0 0 0-1.664 1.109L11 54.3V63a1 1 0 0 0 2 0v-9a1 1 0 0 0-.168-.555ZM59 30h4a1 1 0 0 0 0-2h-4a1 1 0 0 0 0 2Z" fill="#f36800" data-original="#000000" class=""></path><path d="M63.171 43.015a1 1 0 0 0-1.156.814c-.636 3.658-3.573 6.265-5.271 7.494a8.667 8.667 0 0 0-3.188-4.155 1 1 0 0 0-1.541.668c-.388 2.324-2.25 3.8-4.191 4.723-.212-2.5-.091-8.159 4.751-11.176l1.532 3.064a1 1 0 0 0 1.752.067c.027-.046 2.824-4.631 7.339-5.534a1 1 0 1 0-.398-1.96 13.776 13.776 0 0 0-7.649 5.053l-1.26-2.52a1 1 0 0 0-1.342-.447 12.039 12.039 0 0 0-6.539 9.23 18.371 18.371 0 0 0-.123 4.979 18.963 18.963 0 0 1-1.891.5V52a1 1 0 0 0-.086-.406L40 42.787V35a1 1 0 0 0-2 0v7H28v-2a1 1 0 0 0-2 0v3a1.012 1.012 0 0 1 .035.263l2.921 10.708-.691 2.072c-1.8.175-6.385 1.065-8.194 5.586a1 1 0 0 0 .558 1.3 1 1 0 0 0 1.3-.558 7.209 7.209 0 0 1 5.631-4.211l-1.508 4.524a1 1 0 1 0 1.9.633l3-9a1 1 0 0 0 .017-.579L28.309 44H38.35L42 52.212V63a1 1 0 0 0 2 0v-7.143c2.186-.4 7.722-1.808 9.521-6.076A4.887 4.887 0 0 1 55 53a1 1 0 0 0 1.477.879c.262-.142 6.438-3.551 7.509-9.708a1 1 0 0 0-.815-1.156ZM61.009 54H61a1 1 0 0 0-1 .986c0 .179-.148 4.413-6.394 7.09A1 1 0 0 0 54 64a.983.983 0 0 0 .394-.081C61.913 60.7 62 55.231 62 55a1 1 0 0 0-.991-1Z" fill="#f36800" data-original="#000000" class=""></path><path d="M35 39a1 1 0 0 0 0 2h1a1 1 0 0 0 0-2ZM9 39a1 1 0 0 0 0 2h1a1 1 0 0 0 0-2Z" fill="#f36800" data-original="#000000" class=""></path></g></svg>