<svg xmlns="http://www.w3.org/2000/svg" version="1.1" xmlns:xlink="http://www.w3.org/1999/xlink" xmlns:svgjs="http://svgjs.com/svgjs" width="512" height="512" x="0" y="0" viewBox="0 0 511.998 511.998" style="enable-background:new 0 0 512 512" xml:space="preserve" class=""><g><path d="M394.223 408.035c-13.704 0-24.854 11.149-24.854 24.851 0 13.705 11.15 24.855 24.854 24.855 13.704 0 24.854-11.15 24.854-24.855 0-13.702-11.15-24.851-24.854-24.851zm0 33.538c-4.789 0-8.686-3.897-8.686-8.687 0-4.787 3.896-8.682 8.686-8.682s8.686 3.894 8.686 8.682c-.001 4.79-3.896 8.687-8.686 8.687zM99.516 457.741c13.705 0 24.855-11.15 24.855-24.855 0-13.702-11.15-24.851-24.855-24.851-13.704 0-24.853 11.149-24.853 24.851.001 13.705 11.148 24.855 24.853 24.855zm0-33.538c4.789 0 8.687 3.894 8.687 8.682 0 4.789-3.897 8.687-8.687 8.687-4.788 0-8.685-3.897-8.685-8.687.001-4.786 3.897-8.682 8.685-8.682z" fill="#f36800" data-original="#000000" class=""></path><path d="m496.372 382.784-.123-19.855c.111-.877.164-1.706.164-2.515v-30.798c0-11.59-9.429-21.019-21.019-21.019h-.472l-56.984-95.635a8.084 8.084 0 0 0-6.945-3.946h-17.734v-12.374c0-11.59-9.429-21.019-21.019-21.019h-22.781c-11.59 0-21.019 9.429-21.019 21.019v12.374h-23.618a8.083 8.083 0 0 0-8.084 8.084v59.901h-28.244v-48.353c0-11.59-9.429-21.019-21.019-21.019h-91.052v-10.987c0-8.172-4.697-15.251-11.524-18.727L370.809 62.97a21.417 21.417 0 0 0 10.725-12.541 21.417 21.417 0 0 0-1.285-16.45c-5.391-10.591-18.394-14.824-28.99-9.438l-49.005 24.935a8.086 8.086 0 0 0 7.333 14.411l49.003-24.934a5.396 5.396 0 0 1 7.249 2.358 5.353 5.353 0 0 1 .322 4.111 5.354 5.354 0 0 1-2.682 3.135L113.748 175.623H89.981L285.957 75.91a8.086 8.086 0 0 0-7.333-14.411L54.326 175.623h-9.312c-11.59 0-21.019 9.429-21.019 21.019v10.987h-2.976C9.429 207.628 0 217.058 0 228.647V436.72c0 11.59 9.429 21.019 21.019 21.019h27.316c9.243 18.959 28.71 32.054 51.181 32.054 22.472 0 41.939-13.096 51.183-32.054h21.865a8.082 8.082 0 0 0 8.084-8.084 8.083 8.083 0 0 0-8.084-8.084h-16.802c.023-.15.038-.302.059-.452.101-.696.191-1.394.267-2.093.031-.288.056-.578.083-.868.057-.614.103-1.229.14-1.845.016-.268.033-.537.046-.805.04-.873.067-1.746.067-2.624 0-31.378-25.529-56.905-56.907-56.905-31.378 0-56.905 25.528-56.905 56.905 0 .876.027 1.749.067 2.62.013.272.03.542.046.814.037.612.083 1.223.14 1.833.027.293.053.586.084.878.074.688.163 1.372.262 2.056.024.161.039.323.064.484H21.019a4.857 4.857 0 0 1-4.851-4.851V293.17h236.155v148.402h-52.814a8.082 8.082 0 0 0-8.084 8.084 8.082 8.082 0 0 0 8.084 8.084H343.04c9.243 18.959 28.71 32.054 51.181 32.054 22.472 0 41.939-13.096 51.183-32.054h43.294c12.849 0 23.301-10.452 23.301-23.301V404.78c.001-10.159-6.539-18.816-15.627-21.996zm-396.856 9.365c22.463 0 40.739 18.275 40.739 40.737 0 .643-.019 1.283-.049 1.919-.01.213-.027.427-.04.641-.027.423-.057.844-.096 1.263a46.189 46.189 0 0 1-.225 1.894c-.037.257-.072.513-.113.769-.061.385-.133.767-.206 1.148-.045.238-.086.477-.136.715a40.081 40.081 0 0 1-.405 1.75c-.051.197-.11.392-.164.589-.111.409-.223.816-.347 1.219-.071.233-.15.463-.225.694-5.32 16.314-20.669 28.14-38.735 28.14-18.057 0-33.399-11.815-38.726-28.118-.079-.241-.161-.482-.235-.724-.119-.388-.226-.78-.334-1.173-.063-.227-.129-.454-.188-.683a41.049 41.049 0 0 1-.391-1.69c-.051-.243-.093-.487-.139-.731a45.34 45.34 0 0 1-.203-1.133 33.804 33.804 0 0 1-.114-.777 42.675 42.675 0 0 1-.225-1.889c-.039-.419-.07-.841-.096-1.263-.013-.213-.03-.427-.04-.641a40.69 40.69 0 0 1-.048-1.919c.004-22.462 18.278-40.737 40.741-40.737zM40.163 196.642a4.857 4.857 0 0 1 4.851-4.851h90.391a4.857 4.857 0 0 1 4.851 4.851v10.987H40.163v-10.987zm10.301 80.36H16.168v-20.48h34.295v20.48zm50.465 0H66.632v-20.48h34.297v20.48zm50.466 0h-34.296v-20.48h34.296v20.48zm50.464 0h-34.296v-20.48h34.296v20.48zm50.464 0h-34.295v-20.48h34.295v20.48zm.002-36.649H16.168v-11.705a4.856 4.856 0 0 1 4.851-4.851H247.475a4.857 4.857 0 0 1 4.851 4.851v11.705zm44.413 201.22h-28.244V324.767h28.244v116.806zm0-132.975h-28.244V293.17h28.244v15.428zm47.87-111.956a4.857 4.857 0 0 1 4.851-4.851h22.781a4.857 4.857 0 0 1 4.851 4.851v12.374h-32.483v-12.374zm90.304 238.216c-.009.184-.025.368-.036.551-.029.48-.064.957-.109 1.433-.018.19-.041.378-.061.568-.053.481-.113.96-.183 1.436l-.073.481c-.084.527-.177 1.05-.281 1.569l-.061.308c-3.851 18.488-20.27 32.423-39.884 32.423-17.499 0-32.453-11.094-38.209-26.615-.019-.055-.042-.108-.063-.163a40.381 40.381 0 0 1-1.635-5.756l-.005-.026a39.359 39.359 0 0 1-.327-1.826c-.022-.135-.04-.269-.059-.405a42.76 42.76 0 0 1-.19-1.486c-.019-.181-.04-.363-.057-.544-.045-.474-.08-.951-.109-1.429-.011-.181-.025-.361-.033-.542-.03-.646-.05-1.294-.05-1.947 0-22.462 18.275-40.737 40.737-40.737 22.463 0 40.739 18.275 40.739 40.737a42.91 42.91 0 0 1-.051 1.97zm45.333-74.443c0 .186-.024.43-.072.748a8.11 8.11 0 0 0-.095 1.282l.124 20.182c-.059.019-.114.045-.174.065-.485.163-.964.34-1.435.532-.049.021-.098.038-.147.058-.498.209-.985.438-1.465.68-.098.05-.196.099-.293.15-.476.248-.945.509-1.402.789-.041.025-.08.052-.12.078-.43.267-.849.55-1.26.844l-.233.166a23.4 23.4 0 0 0-1.242.978l-.223.194a24.2 24.2 0 0 0-1.132 1.04l-.075.071c-.378.377-.741.77-1.093 1.172l-.216.249c-.344.403-.676.816-.992 1.242-.038.051-.073.103-.111.155-.291.4-.569.81-.835 1.228-.05.078-.1.154-.149.233-.277.447-.539.905-.786 1.372-.051.095-.098.192-.148.287a22.89 22.89 0 0 0-.674 1.425l-.027.059a23.562 23.562 0 0 0-.689 1.849 22.96 22.96 0 0 0-.451 1.549c-.021.08-.037.161-.056.24-.116.485-.218.977-.303 1.472-.016.092-.034.181-.049.273a23.607 23.607 0 0 0-.201 1.632c-.011.119-.018.238-.027.357a23.72 23.72 0 0 0-.07 1.715v29.659c0 .554.026 1.102.065 1.646a23.261 23.261 0 0 0 .217 1.966c.01.061.023.121.032.181.079.476.174.947.28 1.414l.082.356c.123.5.26.994.415 1.481.01.029.015.059.025.088h-14.772c.135-.876.241-1.756.334-2.639.023-.213.041-.429.061-.642.064-.676.115-1.354.155-2.033.014-.241.03-.483.041-.724.04-.88.067-1.761.067-2.646 0-31.378-25.529-56.905-56.907-56.905-31.378 0-56.905 25.528-56.905 56.905 0 .885.027 1.767.067 2.646.011.243.027.483.041.724.04.679.092 1.357.155 2.033.021.214.039.429.061.642.094.883.2 1.763.334 2.64h-25.071V225.186h16.655a23.215 23.215 0 0 0-1.121 7.132v69.147c0 12.849 10.453 23.301 23.303 23.301h59.114a8.082 8.082 0 0 0 8.084-8.084 8.082 8.082 0 0 0-8.084-8.084h-59.114c-3.933 0-7.135-3.2-7.135-7.132v-69.147c0-3.932 3.201-7.132 7.135-7.132H406.394l49.702 83.413h-17.935a8.083 8.083 0 0 0-8.084 8.084 8.082 8.082 0 0 0 8.084 8.084H475.391a4.857 4.857 0 0 1 4.851 4.851v30.796zm15.587 74.025c0 3.932-3.2 7.132-7.132 7.132H487.43c-3.932 0-7.132-3.2-7.132-7.132v-29.659c0-3.932 3.2-7.132 7.132-7.132h1.27c3.932 0 7.132 3.2 7.132 7.132v29.659z" fill="#f36800" data-original="#000000" class=""></path><path d="M370.765 335.855h-29.167a8.082 8.082 0 0 0-8.084 8.084 8.082 8.082 0 0 0 8.084 8.084h29.167a8.082 8.082 0 0 0 8.084-8.084 8.084 8.084 0 0 0-8.084-8.084zM352.992 134.124v25.149c0 4.466 3.619 8.084 8.084 8.084s8.084-3.618 8.084-8.084v-25.149c0-4.466-3.619-8.084-8.084-8.084s-8.084 3.619-8.084 8.084zM391.592 172.393a8.065 8.065 0 0 0 5.941-2.599l17.065-18.476a8.083 8.083 0 0 0-.453-11.424 8.082 8.082 0 0 0-11.425.453l-17.066 18.476a8.084 8.084 0 0 0 .454 11.424 8.053 8.053 0 0 0 5.484 2.146zM308.008 139.896a8.084 8.084 0 0 0-.453 11.424l17.065 18.476a8.06 8.06 0 0 0 5.941 2.599 8.05 8.05 0 0 0 5.483-2.146 8.085 8.085 0 0 0 .454-11.424l-17.066-18.476a8.084 8.084 0 0 0-11.424-.453z" fill="#f36800" data-original="#000000" class=""></path></g></svg>