<svg xmlns="http://www.w3.org/2000/svg" version="1.1" xmlns:xlink="http://www.w3.org/1999/xlink" xmlns:svgjs="http://svgjs.com/svgjs" width="512" height="512" x="0" y="0" viewBox="0 0 512 512" style="enable-background:new 0 0 512 512" xml:space="preserve" class=""><g><path d="M488.89 451.709v-68.151c0-4.142-3.357-7.5-7.5-7.5s-7.5 3.358-7.5 7.5v67.218h-94.716V246.38c17.021-4.936 32.36-15.017 43.669-28.847 12.792-15.643 19.837-35.408 19.837-55.653 0-48.507-39.468-87.97-87.979-87.97-23.132 0-44.976 8.906-61.507 25.077-14.743 14.421-23.785 33.19-25.937 53.463H235.52V61.223h238.37v292.335c0 4.142 3.357 7.5 7.5 7.5s7.5-3.358 7.5-7.5V60.29C502.154 56.936 512 44.904 512 30.612 512 13.732 498.268 0 481.389 0H228.017c-16.88 0-30.612 13.732-30.612 30.612 0 14.293 9.848 26.327 23.115 29.68v92.159h-36.556a83.2 83.2 0 0 0 11.456-42.2c0-46.163-37.557-83.72-83.72-83.72-19.19 0-37.933 6.653-52.774 18.733a7.5 7.5 0 0 0-1.082 10.551 7.5 7.5 0 0 0 10.551 1.082C80.569 46.987 95.949 41.53 111.7 41.53c37.893 0 68.72 30.828 68.72 68.72 0 37.898-30.827 68.73-68.72 68.73-37.898 0-68.73-30.832-68.73-68.73 0-11.416 2.854-22.719 8.255-32.688a7.5 7.5 0 0 0-13.189-7.145C31.45 82.573 27.97 96.347 27.97 110.25a83.183 83.183 0 0 0 11.458 42.2H30.61C13.731 152.45 0 166.182 0 183.06c0 8.175 3.185 15.861 8.967 21.644 3.97 3.969 8.838 6.714 14.145 8.045v238.96C9.847 455.063 0 467.096 0 481.388 0 498.268 13.732 512 30.611 512h450.777c16.88 0 30.612-13.732 30.612-30.612 0-14.292-9.846-26.325-23.11-29.679zM212.404 30.612c0-8.608 7.004-15.612 15.612-15.612h253.372C489.997 15 497 22.003 497 30.612c0 8.597-6.985 15.591-15.577 15.61l-.033-.002H228.02l-.035.002c-8.594-.018-15.581-7.013-15.581-15.61zM79.887 450.776V267.002c0-6.337 5.155-11.493 11.492-11.493h150.566c6.337 0 11.492 5.156 11.492 11.493v5.432h-80.291a7.5 7.5 0 0 0-7.5 7.5v16.443h-18.174c-14.183 0-25.722 11.539-25.722 25.721v85.036c0 13.921 11.119 25.286 24.941 25.701v17.941zm155.63 0v-17.921h17.921v17.921zm-48.404-32.921h-39.641c-5.912 0-10.722-4.81-10.722-10.721v-20.935h81.792c12.109 0 21.961-9.852 21.961-21.962v-15.97c0-12.109-9.852-21.961-21.961-21.961H136.75v-4.208c0-5.912 4.81-10.721 10.722-10.721h105.965v106.478h-25.421zm31.43-76.549a6.97 6.97 0 0 1 6.961 6.961v15.97c0 3.839-3.123 6.962-6.961 6.962h-32.5v-29.893zm-47.5 29.893h-34.292v-29.893h34.292zm82.395-74.822h-72.791v-8.943h72.791zm-91.746 136.478h17.921v17.921h-17.921zm32.921 0h25.903v17.921h-25.903zm73.825 17.921V267.002c0-14.608-11.885-26.493-26.492-26.493H91.379c-14.607 0-26.492 11.885-26.492 26.493v183.774H38.111V213.672h326.063v237.104zm110.736-220.132v-17.907c13.268-3.354 23.116-15.386 23.116-29.677 0-4.829-1.119-9.484-3.221-13.68h28.204c-2.913 27.87-21.839 51.889-48.099 61.264zm48.122-76.264h-44.899a30.639 30.639 0 0 0-10.727-1.93h-9.468V89.294c34.264 3.514 61.579 30.827 65.094 65.086zm-123.613-44.67c11.91-11.651 27.147-18.748 43.52-20.413v63.153H282.35c2.08-16.199 9.493-31.158 21.333-42.74zM15 183.06c0-8.607 7.003-15.61 15.61-15.61h20.025c15.288 16.31 37 26.53 61.065 26.53 24.063 0 45.771-10.22 61.057-26.53H371.67c4.175 0 8.098 1.624 11.047 4.574a15.505 15.505 0 0 1 4.573 11.036c0 8.607-7.007 15.61-15.62 15.61H30.61c-4.168 0-8.088-1.624-11.037-4.573S15 187.228 15 183.06zM481.389 497H30.611C22.003 497 15 489.997 15 481.388s7.003-15.612 15.611-15.612l450.778.003.033-.002c8.593.019 15.577 7.013 15.577 15.61.001 8.61-7.002 15.613-15.61 15.613z" fill="#f36800" data-original="#000000" class=""></path><path d="M111.699 165.984c14.721 0 25.994-5.17 33.508-15.366 19.971-27.099 3.662-80.761 2.958-83.032a7.5 7.5 0 0 0-13.109-2.353l-29.647 38.531-16.401-16.403a7.5 7.5 0 0 0-11.813 1.576c-10.544 18.415-11.16 39.205-1.648 55.613 7.78 13.421 21.296 21.434 36.152 21.434zm-25.63-60.348 14.771 14.772a7.5 7.5 0 0 0 11.248-.73l25.32-32.906c3.325 17.387 5.244 42.042-4.285 54.957-4.595 6.227-11.603 9.254-21.425 9.254-9.586 0-18.033-5.087-23.175-13.957-5.296-9.137-6.083-20.38-2.454-31.39z" fill="#f36800" data-original="#000000" class=""></path></g></svg>