<svg xmlns="http://www.w3.org/2000/svg" version="1.1" xmlns:xlink="http://www.w3.org/1999/xlink" xmlns:svgjs="http://svgjs.com/svgjs" width="512" height="512" x="0" y="0" viewBox="0 0 64 64" style="enable-background:new 0 0 512 512" xml:space="preserve"><g><g data-name="27-fire hydrant"><path d="M27 26h-8a1 1 0 0 1-1-1v-4a5 5 0 0 1 10 0v4a1 1 0 0 1-1 1Zm-7-2h6v-3a3 3 0 0 0-6 0Z" fill="#f36800" data-original="#000000"></path><path d="m31.143 41.515-6-10A1 1 0 0 1 25 31v-1.754a3.246 3.246 0 0 1 6.366-.9l3.534 7.215-1.8.878-3.575-7.3a1.04 1.04 0 0 1-.072-.2 1.246 1.246 0 0 0-2.455.3v1.477l5.857 9.762ZM16 42a3 3 0 0 1-3-3v-8a3 3 0 0 1 6 0v8a3 3 0 0 1-3 3Zm0-12a1 1 0 0 0-1 1v8a1 1 0 0 0 2 0v-8a1 1 0 0 0-1-1Z" fill="#f36800" data-original="#000000"></path><path d="M20 42a3 3 0 0 1-3-3v-8a3 3 0 0 1 6 0v8a3 3 0 0 1-3 3Zm0-12a1 1 0 0 0-1 1v8a1 1 0 0 0 2 0v-8a1 1 0 0 0-1-1Z" fill="#f36800" data-original="#000000"></path><path d="M19 29h-2v-.395a4 4 0 0 1 1.781-3.328l1.664-1.109 1.11 1.664-1.664 1.109A2 2 0 0 0 19 28.605ZM27 45h-7a3 3 0 0 1-3-3v-2h2v2a1 1 0 0 0 1 1h7a1 1 0 0 0 1-1v-6h2v6a3 3 0 0 1-3 3ZM27 27c-.042-.323-1.178-1-2-1v-2c1.592 0 4 1.2 4 3ZM25.414 62.91l-.828-1.82 8.556-3.89a3.171 3.171 0 0 0 1.285-4.7l-3.755-5.964 1.692-1.064 3.728 5.923A5.089 5.089 0 0 1 37 54.314a5.18 5.18 0 0 1-3.031 4.707Z" fill="#f36800" data-original="#000000"></path><path d="m28.154 42.532 1.692-1.065 1.003 1.593-1.692 1.064zM23.5 64a2.837 2.837 0 0 1-2.774-2.274L20.02 58.2A.925.925 0 0 1 20 58a3 3 0 0 1 3-3h1a3 3 0 0 1 3 3 .925.925 0 0 1-.02.2l-.706 3.53A2.837 2.837 0 0 1 23.5 64ZM22 57.918l.684 3.415a.829.829 0 0 0 1.626 0l.69-3.415A1 1 0 0 0 24 57h-1a1 1 0 0 0-1 .918Z" fill="#f36800" data-original="#000000"></path><path d="M18.5 62a2.837 2.837 0 0 1-2.774-2.274L15.02 56.2A.925.925 0 0 1 15 56a3 3 0 0 1 3-3h1a3 3 0 0 1 3 3 .925.925 0 0 1-.02.2l-.706 3.53A2.837 2.837 0 0 1 18.5 62ZM17 55.918l.684 3.415a.829.829 0 0 0 1.626 0l.69-3.415A1 1 0 0 0 19 55h-1a1 1 0 0 0-1 .918Z" fill="#f36800" data-original="#000000"></path><path d="M1 56a1 1 0 0 1-1-1v-4a1 1 0 0 1 1-1c17.047 0 32-6.542 32-14a1 1 0 0 1 1-1h3a1 1 0 0 1 1 1c0 10.654-17.29 20-37 20Zm1-4.007v2C19.271 53.7 34.834 45.849 35.937 37h-1C33.854 45.2 19.578 51.753 2 51.993Z" fill="#f36800" data-original="#000000"></path><path d="m25.515 57.857-1.03-1.714 4.015-2.412-3.285-4.106 1.562-1.25 3.285 4.106a2 2 0 0 1-.532 2.965ZM19.293 58.293l1-1 1.414 1.414-1 1z" fill="#f36800" data-original="#000000"></path><path d="m20.447 55.9-.894-1.79 2.759-1.378-1.018-1.018 1.414-1.414 2 2a1 1 0 0 1-.26 1.6ZM18.448 48.411A4.947 4.947 0 0 1 18 46.343V43h2v3.343a2.964 2.964 0 0 0 .269 1.24ZM48 37a1 1 0 0 1-.514-.143C46.16 36.062 42.229 34 40 34a1.882 1.882 0 0 0-2 2h-2a3.888 3.888 0 0 1 4-4c2.138 0 5.068 1.312 6.876 2.242-.2-1.484-.63-3-1.323-3.347A1 1 0 0 1 45 30c0-1.613.782-2.49 2.679-2.831A5.728 5.728 0 0 0 44.194 26H42c-6.9 0-7 9.593-7 10h-2c0-4.15 1.881-12 9-12h2.194a7.723 7.723 0 0 1 5.5 2.277l1.016 1.016A1 1 0 0 1 50 29c-2.08 0-2.718.233-2.913.548C48.9 31.2 49 35.152 49 36a1 1 0 0 1-1 1ZM35 20a7.008 7.008 0 0 1-7-7V7a1 1 0 0 1 1.8-.6l1.353 1.8C31.492 4.915 32.571 0 36 0a1 1 0 0 1 1 1 19.444 19.444 0 0 0 .936 6.419L40.2 4.4A1 1 0 0 1 42 5v8a7.008 7.008 0 0 1-7 7Zm-5-10v3a5 5 0 0 0 10 0V8l-1.2 1.6a1 1 0 0 1-1.247.295c-1.908-.955-2.4-4.983-2.517-7.449C33.655 3.809 33 8 33 11a1 1 0 0 1-1.8.6Z" fill="#f36800" data-original="#000000"></path><path d="M47 25a7.008 7.008 0 0 1-7-7v-4a1 1 0 0 1 1.8-.6l1.428 1.9C43.638 12.649 44.786 9 48 9a1 1 0 0 1 1 1 13.84 13.84 0 0 0 .989 5.6l2.3-2.3A1 1 0 0 1 54 14v4a7.008 7.008 0 0 1-7 7Zm-5-8v1a5 5 0 0 0 10 0v-1.586l-1.293 1.293a1 1 0 0 1-1.154.188c-1.888-.945-2.384-4.523-2.511-6.588C45.4 12.445 45 16.45 45 18a1 1 0 0 1-1.8.6ZM44 52a7.008 7.008 0 0 1-7-7v-4a1 1 0 0 1 1.8-.6l1.428 1.9c.41-2.651 1.558-6.3 4.772-6.3a1 1 0 0 1 1 1 13.84 13.84 0 0 0 .989 5.6l2.3-2.3A1 1 0 0 1 51 41v4a7.008 7.008 0 0 1-7 7Zm-5-8v1a5 5 0 0 0 10 0v-1.586l-1.293 1.293a1 1 0 0 1-1.154.188c-1.888-.945-2.384-4.523-2.511-6.588C42.4 39.445 42 43.45 42 45a1 1 0 0 1-1.8.6ZM13 47h-2V11a1 1 0 0 1 1-1h11v2H13ZM25 10h2v2h-2zM51 26h2v2h-2z" fill="#f36800" data-original="#000000"></path><path d="M52 54H39v-2h12V30h2v23a1 1 0 0 1-1 1Z" fill="#f36800" data-original="#000000"></path><path d="M56 58H35v-2h20V8H43V6h13a1 1 0 0 1 1 1v50a1 1 0 0 1-1 1ZM9 47H7V7a1 1 0 0 1 1-1h19v2H9Z" fill="#f36800" data-original="#000000"></path><path d="M56 56h7v2h-7zM1 56h15v2H1z" fill="#f36800" data-original="#000000"></path></g></g></svg>