<svg xmlns="http://www.w3.org/2000/svg" version="1.1" xmlns:xlink="http://www.w3.org/1999/xlink" xmlns:svgjs="http://svgjs.com/svgjs" width="512" height="512" x="0" y="0" viewBox="0 0 682.667 682.667" style="enable-background:new 0 0 512 512" xml:space="preserve" class=""><g><defs><clipPath id="a" clipPathUnits="userSpaceOnUse"><path d="M0 512h512V0H0Z" fill="#f36800" data-original="#000000"></path></clipPath></defs><g clip-path="url(#a)" transform="matrix(1.33333 0 0 -1.33333 0 682.667)"><path d="M0 0h-.001a231.36 231.36 0 0 0-146.333 0c-15.19 5.063-24.587 20.267-22.322 36.119l6.535 45.746a88.496 88.496 0 0 0 87.605 75.979h2.698a88.496 88.496 0 0 0 87.605-75.979l6.535-45.746C24.587 20.267 15.19 5.063 0 0Z" style="stroke-width:15;stroke-linecap:round;stroke-linejoin:round;stroke-miterlimit:10;stroke-dasharray:none;stroke-opacity:1" transform="translate(329.167 234.74)" fill="none" stroke="#f36800" stroke-width="15" stroke-linecap="round" stroke-linejoin="round" stroke-miterlimit="10" stroke-dasharray="none" stroke-opacity="" data-original="#000000"></path><path d="M0 0h-53.25a8.282 8.282 0 0 0-8.283 8.283V24.85a8.282 8.282 0 0 0 8.283 8.283H2.366" style="stroke-width:15;stroke-linecap:round;stroke-linejoin:round;stroke-miterlimit:10;stroke-dasharray:none;stroke-opacity:1" transform="translate(234.7 438.233)" fill="none" stroke="#f36800" stroke-width="15" stroke-linecap="round" stroke-linejoin="round" stroke-miterlimit="10" stroke-dasharray="none" stroke-opacity="" data-original="#000000"></path><path d="M0 0h53.25a8.282 8.282 0 0 1 8.283 8.283V24.85a8.282 8.282 0 0 1-8.283 8.283H-2.366" style="stroke-width:15;stroke-linecap:round;stroke-linejoin:round;stroke-miterlimit:10;stroke-dasharray:none;stroke-opacity:1" transform="translate(277.3 438.233)" fill="none" stroke="#f36800" stroke-width="15" stroke-linecap="round" stroke-linejoin="round" stroke-miterlimit="10" stroke-dasharray="none" stroke-opacity="" data-original="#000000"></path><path d="m0 0 7.12 99.689c.619 8.67 7.833 15.387 16.525 15.387h2.283c8.691 0 15.905-6.717 16.524-15.387L49.574-.022" style="stroke-width:15;stroke-linecap:round;stroke-linejoin:round;stroke-miterlimit:10;stroke-dasharray:none;stroke-opacity:1" transform="translate(231.214 389.424)" fill="none" stroke="#f36800" stroke-width="15" stroke-linecap="round" stroke-linejoin="round" stroke-miterlimit="10" stroke-dasharray="none" stroke-opacity="" data-original="#000000"></path><path d="M0 0h-82.825c-5.39 0-9.344 5.064-8.036 10.292l4.141 16.567a8.284 8.284 0 0 0 8.036 6.274h74.541a8.284 8.284 0 0 0 8.037-6.274l4.141-16.567C9.343 5.064 5.389 0 0 0Z" style="stroke-width:15;stroke-linecap:round;stroke-linejoin:round;stroke-miterlimit:10;stroke-dasharray:none;stroke-opacity:1" transform="translate(297.413 313.983)" fill="none" stroke="#f36800" stroke-width="15" stroke-linecap="round" stroke-linejoin="round" stroke-miterlimit="10" stroke-dasharray="none" stroke-opacity="" data-original="#000000"></path><path d="M0 0c-6.529 27.877-33.013 48.746-64.709 48.746-31.696 0-58.18-20.869-64.709-48.746" style="stroke-width:15;stroke-linecap:round;stroke-linejoin:round;stroke-miterlimit:10;stroke-dasharray:none;stroke-opacity:1" transform="translate(320.709 232.105)" fill="none" stroke="#f36800" stroke-width="15" stroke-linecap="round" stroke-linejoin="round" stroke-miterlimit="10" stroke-dasharray="none" stroke-opacity="" data-original="#000000"></path><path d="M0 0h44.967" style="stroke-width:15;stroke-linecap:round;stroke-linejoin:round;stroke-miterlimit:10;stroke-dasharray:none;stroke-opacity:1" transform="translate(233.517 421.666)" fill="none" stroke="#f36800" stroke-width="15" stroke-linecap="round" stroke-linejoin="round" stroke-miterlimit="10" stroke-dasharray="none" stroke-opacity="" data-original="#000000"></path><path d="M0 0c0 18.299-14.835 33.133-33.134 33.133S-66.267 18.299-66.267 0c0-18.299 14.834-33.134 33.133-33.134C-14.835-33.134 0-18.299 0 0Z" style="stroke-width:15;stroke-linecap:round;stroke-linejoin:round;stroke-miterlimit:10;stroke-dasharray:none;stroke-opacity:1" transform="translate(123.467 272.567)" fill="none" stroke="#f36800" stroke-width="15" stroke-linecap="round" stroke-linejoin="round" stroke-miterlimit="10" stroke-dasharray="none" stroke-opacity="" data-original="#000000"></path><path d="M0 0h-31.767a8.283 8.283 0 0 1-8.283-8.283v-16.16c0-8.471 6.39-15.577 14.813-16.474l48.056-5.116" style="stroke-width:15;stroke-linecap:round;stroke-linejoin:round;stroke-miterlimit:10;stroke-dasharray:none;stroke-opacity:1" transform="translate(47.55 345.04)" fill="none" stroke="#f36800" stroke-width="15" stroke-linecap="round" stroke-linejoin="round" stroke-miterlimit="10" stroke-dasharray="none" stroke-opacity="" data-original="#000000"></path><path d="M0 0h-98.654" style="stroke-width:15;stroke-linecap:round;stroke-linejoin:round;stroke-miterlimit:10;stroke-dasharray:none;stroke-opacity:1" transform="translate(176.204 345.04)" fill="none" stroke="#f36800" stroke-width="15" stroke-linecap="round" stroke-linejoin="round" stroke-miterlimit="10" stroke-dasharray="none" stroke-opacity="" data-original="#000000"></path><path d="m0 0 47.715-5.08" style="stroke-width:15;stroke-linecap:round;stroke-linejoin:round;stroke-miterlimit:10;stroke-dasharray:none;stroke-opacity:1" transform="translate(115.406 294.213)" fill="none" stroke="#f36800" stroke-width="15" stroke-linecap="round" stroke-linejoin="round" stroke-miterlimit="10" stroke-dasharray="none" stroke-opacity="" data-original="#000000"></path><path d="M0 0c0 18.299 14.834 33.133 33.134 33.133 18.299 0 33.133-14.834 33.133-33.133 0-18.299-14.834-33.134-33.133-33.134C14.834-33.134 0-18.299 0 0Z" style="stroke-width:15;stroke-linecap:round;stroke-linejoin:round;stroke-miterlimit:10;stroke-dasharray:none;stroke-opacity:1" transform="translate(388.533 272.567)" fill="none" stroke="#f36800" stroke-width="15" stroke-linecap="round" stroke-linejoin="round" stroke-miterlimit="10" stroke-dasharray="none" stroke-opacity="" data-original="#000000"></path><path d="M0 0h160.421a8.282 8.282 0 0 0 8.283-8.283v-16.16c0-8.471-6.39-15.577-14.812-16.474l-48.057-5.116" style="stroke-width:15;stroke-linecap:round;stroke-linejoin:round;stroke-miterlimit:10;stroke-dasharray:none;stroke-opacity:1" transform="translate(335.796 345.04)" fill="none" stroke="#f36800" stroke-width="15" stroke-linecap="round" stroke-linejoin="round" stroke-miterlimit="10" stroke-dasharray="none" stroke-opacity="" data-original="#000000"></path><path d="m0 0-47.715-5.08" style="stroke-width:15;stroke-linecap:round;stroke-linejoin:round;stroke-miterlimit:10;stroke-dasharray:none;stroke-opacity:1" transform="translate(396.594 294.213)" fill="none" stroke="#f36800" stroke-width="15" stroke-linecap="round" stroke-linejoin="round" stroke-miterlimit="10" stroke-dasharray="none" stroke-opacity="" data-original="#000000"></path><path d="M0 0h-26.417c-9.149 0-16.566 7.417-16.566 16.567 0 9.149 7.417 16.566 16.566 16.566h66.2" style="stroke-width:15;stroke-linecap:round;stroke-linejoin:round;stroke-miterlimit:10;stroke-dasharray:none;stroke-opacity:1" transform="translate(100.184 7.5)" fill="none" stroke="#f36800" stroke-width="15" stroke-linecap="round" stroke-linejoin="round" stroke-miterlimit="10" stroke-dasharray="none" stroke-opacity="" data-original="#000000"></path><path d="M0 0h66.267c9.149 0 16.566-7.417 16.566-16.566 0-9.15-7.417-16.567-16.566-16.567h-308.05" style="stroke-width:15;stroke-linecap:round;stroke-linejoin:round;stroke-miterlimit:10;stroke-dasharray:none;stroke-opacity:1" transform="translate(371.967 40.633)" fill="none" stroke="#f36800" stroke-width="15" stroke-linecap="round" stroke-linejoin="round" stroke-miterlimit="10" stroke-dasharray="none" stroke-opacity="" data-original="#000000"></path><path d="M0 0c-17.555-5.466-33.021-15.667-44.906-29.11a5.14 5.14 0 0 0-5.565-1.441 33.028 33.028 0 0 1-11.062 1.895c-18.3 0-33.134-14.835-33.134-33.134v-.005a1.797 1.797 0 0 0-1.549-1.775c-31.932-4.721-56.434-31.232-56.434-64.486 0-5.721.724-11.272 2.088-16.567" style="stroke-width:15;stroke-linecap:round;stroke-linejoin:round;stroke-miterlimit:10;stroke-dasharray:none;stroke-opacity:1" transform="translate(226.417 185.256)" fill="none" stroke="#f36800" stroke-width="15" stroke-linecap="round" stroke-linejoin="round" stroke-miterlimit="10" stroke-dasharray="none" stroke-opacity="" data-original="#000000"></path><path d="M0 0a66.379 66.379 0 0 1 2.088 16.567c0 33.254-24.502 59.766-56.435 64.486a1.8 1.8 0 0 0-1.549 1.775v.005c0 18.299-14.833 33.134-33.133 33.134-3.88 0-7.603-.669-11.063-1.895a5.138 5.138 0 0 0-5.564 1.441c-11.885 13.443-27.352 23.644-44.906 29.11" style="stroke-width:15;stroke-linecap:round;stroke-linejoin:round;stroke-miterlimit:10;stroke-dasharray:none;stroke-opacity:1" transform="translate(436.146 40.633)" fill="none" stroke="#f36800" stroke-width="15" stroke-linecap="round" stroke-linejoin="round" stroke-miterlimit="10" stroke-dasharray="none" stroke-opacity="" data-original="#000000"></path><path d="m0 0 8.284 66.862" style="stroke-width:15;stroke-linecap:round;stroke-linejoin:round;stroke-miterlimit:10;stroke-dasharray:none;stroke-opacity:1" transform="translate(222.866 156.6)" fill="none" stroke="#f36800" stroke-width="15" stroke-linecap="round" stroke-linejoin="round" stroke-miterlimit="10" stroke-dasharray="none" stroke-opacity="" data-original="#000000"></path><path d="m0 0-8.284 66.862" style="stroke-width:15;stroke-linecap:round;stroke-linejoin:round;stroke-miterlimit:10;stroke-dasharray:none;stroke-opacity:1" transform="translate(289.134 156.6)" fill="none" stroke="#f36800" stroke-width="15" stroke-linecap="round" stroke-linejoin="round" stroke-miterlimit="10" stroke-dasharray="none" stroke-opacity="" data-original="#000000"></path></g></g></svg>