<svg xmlns="http://www.w3.org/2000/svg" version="1.1" xmlns:xlink="http://www.w3.org/1999/xlink" xmlns:svgjs="http://svgjs.com/svgjs" width="512" height="512" x="0" y="0" viewBox="0 0 512 512" style="enable-background:new 0 0 512 512" xml:space="preserve" class=""><g><path d="M449.33 162.576h55.17v31.023H256v-31.023h55.17M271.53 276.903v-83.304h217.44v126.719M488.97 427.766V504.5H23.03V259.15M488.97 395.135V352.19M412.572 79.757c9.484 8.827 15.34 21.494 15.082 35.522-.478 25.989-22.094 46.828-48.123 46.442-25.854-.383-46.694-21.425-46.694-47.331 0-8.089 2.031-15.705 5.616-22.365.567-1.054 2.014-1.23 2.823-.347 2.368 2.581 7.145 6.984 12.382 7.254 0 0-6.083-42.355 34.593-59.419 1.515-.636 2.999.966 2.234 2.418-2.756 5.23-6.355 14.495-3.199 23.09 3.827 10.422 15.406 9.419 15.667 30.176 0 0 4.736-5.241 6.715-14.522.282-1.328 1.909-1.844 2.904-.918z" style="stroke-width:15;stroke-linecap:round;stroke-linejoin:round;stroke-miterlimit:10;" fill="none" stroke="#f36800" stroke-width="15" stroke-linecap="round" stroke-linejoin="round" stroke-miterlimit="10" data-original="#000000" class=""></path><path d="M403.637 138.383c0 6.448-2.619 12.283-6.851 16.508a23.331 23.331 0 0 1-16.538 6.835c-12.912 0-23.379-10.447-23.384-23.339v-.009c-.056-4.502.843-9.763 3.302-15.812a1.756 1.756 0 0 1 2.116-1.03l8.066 2.354c.271-14.264 10.596-21.387 15.276-23.887a1.749 1.749 0 0 1 2.556 1.292c.765 5.233 2.322 10.28 5.155 14.902 2.37 3.861 4.61 7.168 7.202 10.872 2.245 3.215 3.118 7.458 3.1 11.314zM144.91 251.612l359.59 71.811v31.872l-497-99.25v-31.872l105.35 21.038M54.095 349.421h124.249v155.077H54.095zM209.407 349.421h124.249v155.077H209.407zM380.249 411.452h62.125v93.046h-62.125z" style="stroke-width:15;stroke-linecap:round;stroke-linejoin:round;stroke-miterlimit:10;" fill="none" stroke="#f36800" stroke-width="15" stroke-linecap="round" stroke-linejoin="round" stroke-miterlimit="10" data-original="#000000" class=""></path><path d="M54.095 380.436h124.249v31.015H54.095zM54.095 349.421h124.249v31.015H54.095zM54.095 411.452h124.249v31.015H54.095zM209.407 349.421h124.249v31.015H209.407zM288.98 119.451c8.75 42.326 46.29 74.148 91.27 74.148 51.46 0 93.19-41.667 93.19-93.05 0-51.392-41.73-93.05-93.19-93.05-46.79 0-85.53 34.428-92.18 79.31M302.593 224.171h31.062v31.015h-31.062zM364.718 224.171h31.062v31.015h-31.062zM426.842 224.171h31.062v31.015h-31.062zM488.967 504.498h15.531M23.033 504.498H7.502" style="stroke-width:15;stroke-linecap:round;stroke-linejoin:round;stroke-miterlimit:10;" fill="none" stroke="#f36800" stroke-width="15" stroke-linecap="round" stroke-linejoin="round" stroke-miterlimit="10" data-original="#000000" class=""></path></g></svg>