<svg xmlns="http://www.w3.org/2000/svg" version="1.1" xmlns:xlink="http://www.w3.org/1999/xlink" xmlns:svgjs="http://svgjs.com/svgjs" width="512" height="512" x="0" y="0" viewBox="0 0 300 300" style="enable-background:new 0 0 512 512" xml:space="preserve" class=""><g><path d="M111.29 87.097h-6.561a43.835 43.835 0 0 0 8.874-9.677h2.526c13.34 0 24.194-10.853 24.194-24.194v-4.839c0-11.835-8.555-21.673-19.8-23.748-2.076-11.245-11.913-19.8-23.748-19.8v.135C95.081 1.979 91.984 0 88.447 0h-22.06c-3.537 0-6.634 1.979-8.323 4.974v-.135c-11.835 0-21.673 8.555-23.748 19.8-11.245 2.076-19.8 11.913-19.8 23.748v4.839c0 13.34 10.853 24.194 24.194 24.194h2.526a43.813 43.813 0 0 0 8.874 9.677h-6.561C19.534 87.097 0 106.635 0 130.645v48.387c0 16.011 13.021 29.032 29.032 29.032V300h96.774v-91.935c16.011 0 29.032-13.021 29.032-29.032v-48.387c.001-24.011-19.533-43.549-43.548-43.549zM102 19.727l-1.563-4.684a14.48 14.48 0 0 1 10.045 9.426c-4.631.61-8.932 2.623-12.29 5.981-.74.74-1.587 1.326-2.468 1.834L102 19.727zM66.392 9.677h22.06l3.102 9.31-7.447 14.884H70.732L63.29 18.987l3.102-9.31zm-11.99 5.367-1.563 4.684 6.276 12.552c-.885-.508-1.727-1.094-2.468-1.834-3.358-3.358-7.66-5.371-12.29-5.981a14.47 14.47 0 0 1 10.045-9.421zM33.871 48.387v4.839c0 5.003.89 9.794 2.453 14.274-6.866-1.147-12.13-7.089-12.13-14.274v-4.839c0-8.003 6.513-14.516 14.516-14.516h2.835a11.59 11.59 0 0 1 8.26 3.426c3.997 3.992 9.295 6.194 14.937 6.237l.01.015H90.088l.01-.015c5.642-.044 10.94-2.245 14.937-6.237a11.597 11.597 0 0 1 8.26-3.426h2.835c8.003 0 14.516 6.513 14.516 14.516v4.839c0 7.185-5.265 13.127-12.131 14.274 1.563-4.481 2.453-9.271 2.453-14.274v-4.839H33.871zm10.021 9.678h67.05c-2.352 16.394-16.49 29.032-33.527 29.032-17.037 0-31.167-12.639-33.523-29.032zm-5.182 87.096v-4.839h33.871v4.839H38.71zm33.871 9.678v33.871H38.71v-33.871h33.871zm15.237-58.065-10.398 8.318-10.398-8.318h20.796zM29.032 198.387c-10.674 0-19.355-8.681-19.355-19.355h19.355v19.355zm0-29.032H9.677V150h19.355v19.355zm0-29.032H9.677v-4.839h19.355v4.839zm.001-14.516H10.065c2.361-16.389 16.456-29.033 33.483-29.033h7.979l21.053 16.844v17.027H38.71v-9.677h-9.677v4.839zm43.548 164.516H38.71v-9.677h33.871v9.677zm43.548 0H82.258v-9.677h33.871v9.677zm0-19.355H82.258v-53.226h-9.677v53.226H38.71v-72.581h77.419v72.581zm0-82.258H82.258v-33.871h33.871v33.871zm0-43.549H82.258v-4.839h33.871v4.839zm9.677 53.226v-19.355h19.355c0 10.674-8.68 19.355-19.355 19.355zm19.355-29.032h-19.355V150h19.355v19.355zm0-29.032h-19.355v-4.839h19.355v4.839zm-19.355-14.517v-4.839h-9.677v9.677H82.258v-17.027l21.053-16.844h7.979c17.028.001 31.123 12.645 33.484 29.033h-18.968zM266.129 49.51V33.871h29.032v-9.677h-29.719c-1.19-4.582-3.958-8.526-7.761-11.134l5.076-3.382h32.405V0h-35.337l-14.777 9.852a19.284 19.284 0 0 0-16.94 14.342h-5.526v-4.839h-9.677v4.839h-4.839c-18.673 0-33.871 15.194-33.871 33.871v188.71h-9.677v21.358l17.352 17.352h11.681V300H300V91.935c0-20.68-14.506-38.008-33.871-42.425zm-29.033-15.639v-4.839c.001-5.337 4.341-9.677 9.678-9.677 5.337 0 9.677 4.34 9.677 9.677v19.355h-19.355V33.871zm-43.548 241.935h-7.674l-11.681-11.681v-7.674h19.355v19.355zm.001-183.87v154.839h-9.677V58.065h-.001c0-13.34 10.853-24.194 24.194-24.194h4.839v4.839h9.677v-4.839h4.839V49.51c-19.365 4.418-33.871 21.745-33.871 42.426zm96.774 164.515h-9.677v9.677h9.677v24.194h-87.097v-24.193h67.742v-9.677h-67.742V91.935c0-18.677 15.198-33.871 33.871-33.871h19.355c18.673 0 33.871 15.194 33.871 33.871v164.516z" fill="#f36800" data-original="#000000" class=""></path><circle cx="246.774" cy="29.032" r="4.839" fill="#f36800" data-original="#000000" class=""></circle><path d="M270.968 198.387h9.677v9.677h-9.677zM270.968 217.742h9.677v9.677h-9.677zM270.968 237.097h9.677v9.677h-9.677zM251.613 237.097h9.677v9.677h-9.677zM232.258 237.097h9.677v9.677h-9.677zM251.613 217.742h9.677v9.677h-9.677zM212.903 154.839h67.742V96.774h-67.742v58.065zm9.678-29.033h33.871v-9.677h-33.871v-9.677h48.387v9.677h-4.839v9.677h4.839v19.355h-48.387v-19.355z" fill="#f36800" data-original="#000000" class=""></path></g></svg>